<?xml version="1.0" encoding="UTF-8"?>
<!DOCTYPE svg PUBLIC "-//W3C//DTD SVG 1.1//EN" "http://www.w3.org/Graphics/SVG/1.1/DTD/svg11.dtd">
<!-- Creator: CorelDRAW 2018 (64-Bit) -->
<svg xmlns="http://www.w3.org/2000/svg" xml:space="preserve" width="233.569mm" height="69.3939mm" version="1.1" style="shape-rendering:geometricPrecision; text-rendering:geometricPrecision; image-rendering:optimizeQuality; fill-rule:evenodd; clip-rule:evenodd"
viewBox="0 0 49804.47 14797.01"
 xmlns:xlink="http://www.w3.org/1999/xlink">
 <defs>
  <style type="text/css">
   <![CDATA[
    .fil1 {fill:none}
    .fil0 {fill:black}
   ]]>
  </style>
 </defs>
 <g id="Layer_x0020_1">
  <metadata id="CorelCorpID_0Corel-Layer"/>
  <g id="_3049944885424">
   <polygon class="fil0" points="9373.92,11671.13 11813.08,11672.07 8252.23,3143.06 8248.46,3143.02 8252,3134.28 7104.3,3138.67 5956.64,3134.28 5960.14,3143.02 5956.4,3143.06 2395.51,11672.07 4834.63,11671.13 7104.3,6001.29 "/>
   <polygon class="fil0" points="26217.29,11671.13 28656.43,11672.07 25095.56,3143.06 25091.81,3143.02 25095.3,3134.28 23947.6,3138.67 22799.97,3134.28 22803.49,3143.02 22799.71,3143.06 19238.84,11672.07 21678.03,11671.13 23947.6,6001.29 "/>
   <path class="fil0" d="M29853 11674.84l2439.14 1.73 -40.75 -2902.17c313.02,0.06 1504.97,-1.75 1858.23,-5.42 1098.36,-11.32 1594.61,32.62 2524.92,-603.17 461.09,-315.11 798.21,-851.29 958.39,-1450.34 153.34,-573.72 147.81,-1218.17 -65.19,-1787.8 -336.86,-901.01 -957.56,-1358.95 -1696.54,-1587.75 -313,-96.87 -641.1,-166.15 -975.3,-175.9 -1582.63,-46.21 -3721.99,-27.29 -5019.21,-17.36l0 2107.71 87.45 -0.28c790,-2.81 3950.93,-8.89 4098.56,-12.96 332.3,-9.11 677.01,-8.08 943.59,70.98 609.82,180.78 601.12,1073.3 106.1,1277.52 -219.59,90.52 -507.43,61.11 -781.37,62.82 -1214.98,7.68 -3237.8,8.53 -4454.33,8.53l0 1305.68 16.29 3708.17z"/>
   <path class="fil0" d="M43158.19 11671.17l1230.54 0.9 -16.25 -2568.55 8.7 -3862.51c413.22,0 2672.91,-1.71 3027.79,-5.03l0 -2115.6c-877.71,4.84 -2831.08,6.46 -4250.78,6.99 -1419.76,-0.53 -3373.16,-2.15 -4250.8,-6.99l0 2115.6c354.84,3.33 2614.5,5.03 3027.75,5.03l8.72 3862.51 -16.29 2568.55 1230.63 -0.9z"/>
   <path class="fil0" d="M13133.77 5206.32c326.69,-0.49 631.96,12.2 1002.68,40.3 970.1,73.63 1844.33,368.25 2186.2,1347.01 287.97,824.42 140.88,1710.25 -469.09,2336.98 -730.81,716.48 -1685.02,640.38 -2251.99,639.89l858.47 2056.22c1150.45,-1.49 2077.48,-429.68 2837.24,-948.99 1307.43,-893.63 1943.4,-3122.34 1296.86,-4851.43 -1222.46,-3269.42 -4989.25,-2602.28 -7666.55,-2660.56l851.46 2039.42 1354.71 0 0 1.17z"/>
  </g>
  <rect class="fil1" x="-0.02" width="49804.47" height="14797"/>
 </g>
</svg>
